<svg width="34" height="34" viewBox="0 0 34 34" fill="none" xmlns="http://www.w3.org/2000/svg">
<path d="M22.9167 20.4933V4.54167C22.9167 3.60236 22.5435 2.70152 21.8793 2.03733C21.2151 1.37314 20.3143 1 19.375 1C18.4357 1 17.5349 1.37314 16.8707 2.03733C16.2065 2.70152 15.8333 3.60236 15.8333 4.54167V20.4933C14.6961 21.2532 13.8335 22.3585 13.3727 23.6463C12.9119 24.934 12.8775 26.3357 13.2745 27.6445C13.6715 28.9533 14.4789 30.0997 15.5774 30.9144C16.6759 31.7292 18.0073 32.169 19.375 32.169C20.7427 32.169 22.0741 31.7292 23.1726 30.9144C24.2711 30.0997 25.0785 28.9533 25.4755 27.6445C25.8725 26.3357 25.8381 24.934 25.3773 23.6463C24.9165 22.3585 24.0539 21.2532 22.9167 20.4933Z" stroke="white" stroke-width="2" stroke-linecap="round" stroke-linejoin="round"/>
<path d="M8 9H12" stroke="white" stroke-width="2" stroke-linecap="round" stroke-linejoin="round"/>
<path d="M8 13H12" stroke="white" stroke-width="2" stroke-linecap="round" stroke-linejoin="round"/>
<path d="M8 17H12" stroke="white" stroke-width="2" stroke-linecap="round" stroke-linejoin="round"/>
</svg>
