<svg width="25" height="26" viewBox="0 0 25 26" fill="none" xmlns="http://www.w3.org/2000/svg">
<path d="M20.9996 15.0001H11.4122L11.706 14.7064L14.2134 12.1989C15.2262 12.7089 16.3421 12.9809 17.4759 12.9939C18.6172 12.9969 19.7371 12.6846 20.7121 12.0914C23.6771 10.2964 25.2658 6.1415 24.9621 0.976566C24.9478 0.731926 24.8441 0.501048 24.6709 0.327767C24.4976 0.154486 24.2667 0.0508652 24.0221 0.0365785C18.8571 -0.265917 14.7022 1.32156 12.9072 4.28652C11.7372 6.21775 11.7072 8.55021 12.7985 10.7864L10.9997 12.5852L9.47351 11.0589C10.2235 9.4027 10.1698 7.68398 9.29976 6.24899C7.94103 4.00028 4.82607 2.80154 0.966123 3.02779C0.721907 3.04234 0.491498 3.14591 0.318505 3.31891C0.145511 3.4919 0.0419378 3.72231 0.0273862 3.96653C-0.200111 7.82522 0.999873 10.9402 3.24984 12.3002C4.00258 12.7598 4.86785 13.0021 5.74981 13.0002C6.54993 12.9922 7.33916 12.8137 8.06478 12.4764L9.58476 14.0001L8.58477 15.0001H2.99985C2.73463 15.0001 2.48028 15.1055 2.29275 15.293C2.10522 15.4805 1.99986 15.7349 1.99986 16.0001C1.99986 16.2653 2.10522 16.5197 2.29275 16.7072C2.48028 16.8947 2.73463 17.0001 2.99985 17.0001H4.19858L5.84981 24.4338C5.9466 24.879 6.19333 25.2775 6.54874 25.5626C6.90414 25.8477 7.34666 26.0021 7.80228 26H16.1984C16.654 26.0021 17.0966 25.8477 17.452 25.5626C17.8074 25.2775 18.0541 24.879 18.1509 24.4338L19.8021 17.0001H20.9996C21.2648 17.0001 21.5192 16.8947 21.7067 16.7072C21.8942 16.5197 21.9996 16.2653 21.9996 16.0001C21.9996 15.7349 21.8942 15.4805 21.7067 15.293C21.5192 15.1055 21.2648 15.0001 20.9996 15.0001ZM14.6247 5.32276C15.9322 3.16529 19.0296 1.9478 22.9996 2.00155C23.0508 5.97775 21.8358 9.07396 19.6784 10.3764C18.2396 11.2514 16.5034 11.1939 14.7684 10.2289C13.8022 8.50022 13.7497 6.76149 14.6247 5.32276ZM7.51354 10.5139C6.36355 11.1302 5.22482 11.1589 4.28483 10.5889C2.84735 9.7177 2.01861 7.66398 1.99986 5.00026C4.66357 5.01901 6.71855 5.84775 7.58854 7.28523C8.15853 8.22522 8.12478 9.36395 7.51354 10.5139ZM16.1984 24H7.80228L6.2498 17.0001H17.7496L16.1984 24Z" fill="white"/>
</svg>
